<svg width="220" height="96" viewBox="0 0 220 96" fill="none" xmlns="http://www.w3.org/2000/svg">
<path d="M152.426 11.8514L172.75 5.74304L193.074 11.8514L208.471 26.8262L213.487 48L208.471 69.1738L193.074 84.1486L172.75 90.257L152.426 84.1486L137.029 69.1738L132.013 48L137.029 26.8262L152.426 11.8514Z" fill="black" stroke="url(#paint0_linear_123_26)" stroke-width="11"/>
<path d="M158.23 55.256C156.779 55.256 155.51 54.936 154.422 54.296C153.334 53.656 152.481 52.6853 151.862 51.384C151.265 50.0613 150.966 48.3973 150.966 46.392C150.966 44.3653 151.254 42.7013 151.83 41.4C152.406 40.0987 153.238 39.128 154.326 38.488C155.414 37.848 156.715 37.528 158.23 37.528C159.851 37.528 161.302 37.9013 162.582 38.648C163.883 39.3733 164.907 40.3973 165.654 41.72C166.422 43.0427 166.806 44.6 166.806 46.392C166.806 48.2053 166.422 49.7733 165.654 51.096C164.907 52.4187 163.883 53.4427 162.582 54.168C161.302 54.8933 159.851 55.256 158.23 55.256ZM148.054 61.208V37.784H152.822V41.304L152.726 46.424L153.046 51.512V61.208H148.054ZM157.366 51.16C158.198 51.16 158.934 50.968 159.574 50.584C160.235 50.2 160.758 49.656 161.142 48.952C161.547 48.2267 161.75 47.3733 161.75 46.392C161.75 45.3893 161.547 44.536 161.142 43.832C160.758 43.128 160.235 42.584 159.574 42.2C158.934 41.816 158.198 41.624 157.366 41.624C156.534 41.624 155.787 41.816 155.126 42.2C154.465 42.584 153.942 43.128 153.558 43.832C153.174 44.536 152.982 45.3893 152.982 46.392C152.982 47.3733 153.174 48.2267 153.558 48.952C153.942 49.656 154.465 50.2 155.126 50.584C155.787 50.968 156.534 51.16 157.366 51.16ZM170.148 55V37.784H175.14V55H170.148ZM172.644 35.384C171.726 35.384 170.98 35.1173 170.404 34.584C169.828 34.0507 169.54 33.3893 169.54 32.6C169.54 31.8107 169.828 31.1493 170.404 30.616C170.98 30.0827 171.726 29.816 172.644 29.816C173.561 29.816 174.308 30.072 174.884 30.584C175.46 31.0747 175.748 31.7147 175.748 32.504C175.748 33.336 175.46 34.0293 174.884 34.584C174.329 35.1173 173.582 35.384 172.644 35.384ZM190.237 37.528C191.602 37.528 192.818 37.8053 193.885 38.36C194.973 38.8933 195.826 39.7253 196.445 40.856C197.063 41.9653 197.373 43.3947 197.373 45.144V55H192.381V45.912C192.381 44.5253 192.071 43.5013 191.453 42.84C190.855 42.1787 190.002 41.848 188.893 41.848C188.103 41.848 187.389 42.0187 186.749 42.36C186.13 42.68 185.639 43.1813 185.277 43.864C184.935 44.5467 184.765 45.4213 184.765 46.488V55H179.773V37.784H184.541V42.552L183.645 41.112C184.263 39.96 185.149 39.0747 186.301 38.456C187.453 37.8373 188.765 37.528 190.237 37.528Z" fill="white"/>
<path d="M0.25 56.9731V35.9731H6.25V38.9731H9.25V41.9731H12.25V38.9731H15.25V35.9731H21.25V56.9731H15.25V44.9731H12.25V50.9731H9.25V44.9731H6.25V56.9731H0.25ZM33.25 38.9731V35.9731H39.25V38.9731H33.25ZM27.25 56.9731V53.9731H33.25V44.9731H30.25V41.9731H39.25V53.9731H45.25V56.9731H27.25ZM51.25 56.9731V53.9731H57.25V38.9731H54.25V35.9731H63.25V53.9731H69.25V56.9731H51.25ZM75.25 56.9731V53.9731H72.25V44.9731H75.25V41.9731H90.25V44.9731H93.25V50.9731H78.25V53.9731H90.25V56.9731H75.25ZM78.25 47.9731H87.25V44.9731H78.25V47.9731ZM96.25 56.9731V53.9731H111.25V50.9731H99.25V47.9731H96.25V44.9731H99.25V41.9731H114.25V44.9731H102.25V47.9731H114.25V50.9731H117.25V53.9731H114.25V56.9731H96.25Z" fill="white"/>
<defs>
<linearGradient id="paint0_linear_123_26" x1="172.75" y1="0" x2="172.75" y2="96" gradientUnits="userSpaceOnUse">
<stop stop-color="#0EEB4C"/>
<stop offset="1" stop-color="#239DE2" stop-opacity="0.94"/>
</linearGradient>
</defs>
</svg>
